<?xml version="1.0" encoding="UTF-8"?>
<svg version="1.1" xmlns="http://www.w3.org/2000/svg" width="330" height="274">
<path d="M0 0 C4.26035819 4.0433955 7.73027656 8.10766151 10.81054688 13.07958984 C14.02366024 18.52905909 14.02366024 18.52905909 19.1953125 21.8984375 C21.06682531 22.14848811 22.94573027 22.34886735 24.828125 22.49609375 C29.46138513 23.09924004 32.38243386 25.44489599 35.46875 28.83984375 C41.71906592 37.79512832 41.71906592 37.79512832 41.12109375 42.6796875 C40.79818359 43.74896484 40.79818359 43.74896484 40.46875 44.83984375 C41.23928711 44.92451904 42.00982422 45.00919434 42.80371094 45.09643555 C45.46875 45.83984375 45.46875 45.83984375 46.93847656 47.54223633 C47.51807129 48.62734497 47.51807129 48.62734497 48.109375 49.734375 C48.53992188 50.52521484 48.97046875 51.31605469 49.4140625 52.13085938 C49.84460938 52.96294922 50.27515625 53.79503906 50.71875 54.65234375 C51.16476563 55.47283203 51.61078125 56.29332031 52.0703125 57.13867188 C56.14692858 64.75453192 56.14692858 64.75453192 56.46875 67.83984375 C55.51245117 70.31005859 55.51245117 70.31005859 54.01171875 73.05078125 C53.47611328 74.04851562 52.94050781 75.04625 52.38867188 76.07421875 C51.81697266 77.110625 51.24527344 78.14703125 50.65625 79.21484375 C49.54153202 81.26212787 48.43072682 83.31154824 47.32421875 85.36328125 C46.82559326 86.26997559 46.32696777 87.17666992 45.81323242 88.11083984 C44.40843533 90.96226928 43.40654005 93.80603023 42.46875 96.83984375 C44.44937986 93.19480357 46.42806865 89.54871328 48.40625 85.90234375 C49.29932861 84.25758057 49.29932861 84.25758057 50.21044922 82.57958984 C53.19715726 77.06969795 56.15671344 71.54946647 59.04248047 65.98608398 C69.23405995 46.39108015 81.32081876 27.81736124 95.46875 10.83984375 C95.9534375 10.22109375 96.438125 9.60234375 96.9375 8.96484375 C104.11528684 0.03248679 114.49166745 -8.34639851 126.09375 -10.09765625 C136.07732438 -10.67464041 145.44665327 -5.89339958 153.03125 0.27734375 C175.64310576 21.6107907 180.66589468 59.40520063 181.59472656 88.83081055 C181.68723474 93.22957927 181.71531686 97.62768234 181.71875 102.02734375 C181.71942474 102.81264465 181.72009949 103.59794556 181.72079468 104.40704346 C181.67493451 138.27928111 177.95832314 179.73096853 153.6796875 205.71875 C147.04896215 212.08002891 141.84097556 214.98122106 132.65625 215.33984375 C120.76694431 215.02531185 113.59660238 209.01930155 105.46875 200.83984375 C93.46875 188.1711131 93.46875 188.1711131 93.46875 184.83984375 C92.334375 185.06671875 91.2 185.29359375 90.03125 185.52734375 C85.00044497 186.14281458 80.98606738 185.06815578 76.46875 182.83984375 C69.67690866 177.43724268 66.64411326 171.23529564 65.46875 162.83984375 C64.540625 162.38738281 64.540625 162.38738281 63.59375 161.92578125 C60.82174559 160.50920546 60.3135741 159.14409577 59.03125 156.33984375 C56.94403166 151.84679741 54.68336517 147.50104788 52.2890625 143.1640625 C51.00160022 139.51625271 52.01286488 136.81375818 53.62036133 133.37963867 C54.0923999 132.53506104 54.56443848 131.6904834 55.05078125 130.8203125 C55.57091797 129.87994141 56.09105469 128.93957031 56.62695312 127.97070312 C57.17287109 126.99939453 57.71878906 126.02808594 58.28125 125.02734375 C59.35157173 123.10489615 60.42060516 121.18173067 61.48828125 119.2578125 C62.00213379 118.3404834 62.51598633 117.4231543 63.04541016 116.47802734 C64.33530282 114.08719027 65.47902212 111.67359597 66.60546875 109.203125 C68.46875 105.83984375 68.46875 105.83984375 70.33520508 105.00463867 C73.22921138 104.78110574 74.1401732 105.04982252 76.46875 106.83984375 C78.14635411 109.32606542 79.44381113 111.97380458 80.76171875 114.6640625 C81.15321609 115.44368851 81.54471344 116.22331451 81.94807434 117.02656555 C82.7732216 118.67715891 83.59239407 120.33075071 84.40600586 121.98706055 C85.64690589 124.50835812 86.91067748 127.01715526 88.17773438 129.52539062 C88.97796568 131.13341706 89.77683832 132.74212048 90.57421875 134.3515625 C90.95023727 135.09661545 91.3262558 135.8416684 91.71366882 136.60929871 C93.89167716 141.08436726 95.03962932 144.87372116 95.46875 149.83984375 C96.12875 149.83984375 96.78875 149.83984375 97.46875 149.83984375 C104.83790107 163.01965701 104.83790107 163.01965701 104.78125 169.40234375 C104.92000218 176.08227027 108.9823098 180.1286046 113.12109375 184.9921875 C115.00633976 187.27895013 116.32965325 189.13855718 117.46875 191.83984375 C118.12875 191.83984375 118.78875 191.83984375 119.46875 191.83984375 C119.46875 192.49984375 119.46875 193.15984375 119.46875 193.83984375 C120.04625 194.10796875 120.62375 194.37609375 121.21875 194.65234375 C123.46875 195.83984375 123.46875 195.83984375 125.40625 197.52734375 C127.38752969 199.02507436 127.38752969 199.02507436 129.78125 198.96484375 C137.91981459 195.55800276 141.83595237 187.39889619 145.46875 179.83984375 C145.90058594 178.96972656 146.33242188 178.09960938 146.77734375 177.203125 C166.11038188 134.98362428 163.2341512 74.11704845 147.53125 31.21484375 C144.20893822 22.5563092 140.23421872 15.20734372 133.46875 8.83984375 C133.46875 8.17984375 133.46875 7.51984375 133.46875 6.83984375 C120.69511404 9.71391184 112.55645106 23.7595486 106.01782227 34.07299805 C95.39183067 51.11788311 86.06028924 68.85586333 76.69921875 86.61279297 C71.34853875 96.75917464 65.95605398 106.8835356 60.56867981 117.01046753 C58.85298017 120.2356351 57.13856458 123.46147012 55.42724609 126.68896484 C30.38686652 173.90426758 30.38686652 173.90426758 13.46875 193.83984375 C12.77394531 194.6803125 12.07914062 195.52078125 11.36328125 196.38671875 C3.74294077 205.28835542 -5.48405307 213.91880179 -17.5625 215.1484375 C-27.85822256 215.54535204 -34.90610869 213.38251066 -42.71875 206.65234375 C-60.64046167 189.40269627 -67.09102957 165.86969727 -70.53125 141.83984375 C-70.63421387 141.13730469 -70.73717773 140.43476563 -70.84326172 139.7109375 C-76.73528277 97.48944071 -75.16661394 43.10819005 -50.3359375 6.61328125 C-44.01732518 -1.55468101 -36.88818548 -7.05817468 -26.90625 -9.91015625 C-16.24686222 -10.69974053 -7.97126451 -6.80263777 0 0 Z M-23.84375 7.90234375 C-24.730625 8.87171875 -25.6175 9.84109375 -26.53125 10.83984375 C-27.24124146 11.60820557 -27.24124146 11.60820557 -27.96557617 12.39208984 C-31.59725014 16.45224994 -34.25398577 20.46141382 -36.53125 25.40234375 C-36.86664795 26.12921387 -37.2020459 26.85608398 -37.54760742 27.60498047 C-57.13268884 71.95436103 -55.92855098 133.77033246 -38.71875 178.71484375 C-35.16176641 187.55450997 -30.10260017 194.11516436 -22.53125 199.83984375 C-22.20125 199.17984375 -21.87125 198.51984375 -21.53125 197.83984375 C-20.19791667 197.17317708 -18.86458333 196.50651042 -17.53125 195.83984375 C-2.69655162 184.80516663 6.83024673 165.81594361 15.46875 149.83984375 C16.32291504 148.26468994 16.32291504 148.26468994 17.19433594 146.65771484 C30.37321893 123.91321984 30.37321893 123.91321984 40.46875 99.83984375 C39.56125 100.02546875 38.65375 100.21109375 37.71875 100.40234375 C32.76383197 101.06935195 32.76383197 101.06935195 30.46875 99.83984375 C29.78399458 97.8459645 29.12112712 95.84455035 28.46875 93.83984375 C27.41758216 91.56826665 26.3256825 89.31528414 25.203125 87.078125 C24.88724426 86.44682175 24.57136353 85.81551849 24.24591064 85.16508484 C23.57876199 83.83379428 22.90968083 82.50347059 22.23876953 81.17407227 C21.23146088 79.17753734 20.2304516 77.17794675 19.23046875 75.17773438 C15.45529369 67.64842433 11.55206524 60.20783733 7.46875 52.83984375 C4.46760523 47.38156837 3.31324147 43.84276363 3.71875 37.52734375 C3.97212037 29.47579646 0.44266432 24.88430254 -4.53125 18.83984375 C-5.69914062 17.42058594 -5.69914062 17.42058594 -6.890625 15.97265625 C-10.45875365 11.84176906 -13.60378218 8.33143895 -18.53125 5.83984375 C-21.67454209 5.50703633 -21.67454209 5.50703633 -23.84375 7.90234375 Z " fill="#1FA3B2" transform="translate(111.53125,30.16015625)"/>
<path d="M0 0 C19.36374175 14.9679498 25.24874882 44.01985918 28.421875 66.98828125 C29.85356611 78.7028693 30.24080083 90.39853457 30.25 102.1875 C30.25067474 102.9728009 30.25134949 103.75810181 30.25204468 104.56719971 C30.20618451 138.43943736 26.48957314 179.89112478 2.2109375 205.87890625 C-4.41978785 212.24018516 -9.62777444 215.14137731 -18.8125 215.5 C-30.70180569 215.1854681 -37.87214762 209.1794578 -46 201 C-58 188.33126935 -58 188.33126935 -58 185 C-59.134375 185.226875 -60.26875 185.45375 -61.4375 185.6875 C-66.46830503 186.30297083 -70.48268262 185.22831203 -75 183 C-81.79184134 177.59739893 -84.82463674 171.39545189 -86 163 C-86.928125 162.54753906 -86.928125 162.54753906 -87.875 162.0859375 C-90.64700441 160.66936171 -91.1551759 159.30425202 -92.4375 156.5 C-94.52471834 152.00695366 -96.78538483 147.66120413 -99.1796875 143.32421875 C-100.46714978 139.67640896 -99.45588512 136.97391443 -97.84838867 133.53979492 C-97.3763501 132.69521729 -96.90431152 131.85063965 -96.41796875 130.98046875 C-95.89783203 130.04009766 -95.37769531 129.09972656 -94.84179688 128.13085938 C-94.29587891 127.15955078 -93.74996094 126.18824219 -93.1875 125.1875 C-92.11717827 123.2650524 -91.04814484 121.34188692 -89.98046875 119.41796875 C-89.46661621 118.50063965 -88.95276367 117.58331055 -88.42333984 116.63818359 C-87.13344718 114.24734652 -85.98972788 111.83375222 -84.86328125 109.36328125 C-83 106 -83 106 -81.13354492 105.16479492 C-78.23953862 104.94126199 -77.3285768 105.20997877 -75 107 C-73.32239589 109.48622167 -72.02493887 112.13396083 -70.70703125 114.82421875 C-70.31553391 115.60384476 -69.92403656 116.38347076 -69.52067566 117.1867218 C-68.6955284 118.83731516 -67.87635593 120.49090696 -67.06274414 122.1472168 C-65.82184411 124.66851437 -64.55807252 127.17731151 -63.29101562 129.68554688 C-62.49078432 131.29357331 -61.69191168 132.90227673 -60.89453125 134.51171875 C-60.51851273 135.2567717 -60.1424942 136.00182465 -59.75508118 136.76945496 C-57.57707284 141.24452351 -56.42912068 145.03387741 -56 150 C-55.34 150 -54.68 150 -54 150 C-46.63084893 163.17981326 -46.63084893 163.17981326 -46.6875 169.5625 C-46.54874782 176.24242652 -42.4864402 180.28876085 -38.34765625 185.15234375 C-36.46241024 187.43910638 -35.13909675 189.29871343 -34 192 C-33.34 192 -32.68 192 -32 192 C-32 192.66 -32 193.32 -32 194 C-31.4225 194.268125 -30.845 194.53625 -30.25 194.8125 C-28 196 -28 196 -26.0625 197.6875 C-24.08122031 199.18523061 -24.08122031 199.18523061 -21.6875 199.125 C-13.54893541 195.71815901 -9.63279763 187.55905244 -6 180 C-5.56816406 179.12988281 -5.13632812 178.25976562 -4.69140625 177.36328125 C14.64119494 135.14473472 11.76639957 74.2761959 -3.9375 31.375 C-7.2643925 22.71035023 -11.39795309 15.15191646 -17.99609375 8.5703125 C-19 7 -19 7 -18.78125 4.8828125 C-18 3 -18 3 -16.0625 1.75 C-10.75705383 0.45070706 -5.20350084 0.26549972 0 2 C0 1.34 0 0.68 0 0 Z " fill="#03445C" transform="translate(263,30)"/>
<path d="M0 0 C1.1484375 1.4296875 1.1484375 1.4296875 1.1484375 3.4296875 C-0.17220703 3.39488281 -0.17220703 3.39488281 -1.51953125 3.359375 C-3.26169922 3.33230469 -3.26169922 3.33230469 -5.0390625 3.3046875 C-6.18761719 3.28148437 -7.33617187 3.25828125 -8.51953125 3.234375 C-11.81379249 3.42747355 -13.97168655 3.83970114 -16.8515625 5.4296875 C-17.1815625 6.4196875 -17.5115625 7.4096875 -17.8515625 8.4296875 C-18.8415625 8.8009375 -19.8315625 9.1721875 -20.8515625 9.5546875 C-45.35631579 19.46616292 -60.87133822 63.84199899 -72.39434814 85.83898926 C-76.41319894 93.50986163 -80.47260076 101.15897316 -84.5390625 108.8046875 C-84.88844879 109.46169647 -85.23783508 110.11870544 -85.59780884 110.79562378 C-86.99058769 113.41448039 -88.38353591 116.03324633 -89.77726746 118.65159607 C-91.48325387 121.85658265 -93.18774505 125.06234447 -94.88867188 128.27001953 C-119.93470851 175.49559903 -119.93470851 175.49559903 -136.8515625 195.4296875 C-137.54636719 196.27015625 -138.24117187 197.110625 -138.95703125 197.9765625 C-146.57737173 206.87819917 -155.80436557 215.50864554 -167.8828125 216.73828125 C-178.25950815 217.13831741 -185.91025247 214.70006923 -193.671875 207.796875 C-194.8515625 206.4296875 -194.8515625 206.4296875 -194.8515625 204.4296875 C-193.67078125 204.44128906 -192.49 204.45289063 -191.2734375 204.46484375 C-189.71614742 204.47422502 -188.15885562 204.48332486 -186.6015625 204.4921875 C-185.82425781 204.50056641 -185.04695313 204.50894531 -184.24609375 204.51757812 C-183.49199219 204.52080078 -182.73789063 204.52402344 -181.9609375 204.52734375 C-181.26967773 204.53258057 -180.57841797 204.53781738 -179.86621094 204.54321289 C-177.7190167 204.42221855 -175.88935046 204.12060304 -173.8515625 203.4296875 C-173.14321061 202.1180245 -172.47865215 200.78208566 -171.8515625 199.4296875 C-170.22265625 198.11328125 -170.22265625 198.11328125 -168.2890625 196.8671875 C-153.68063784 186.28595018 -144.28667639 167.02963782 -135.8515625 151.4296875 C-134.99739746 149.85453369 -134.99739746 149.85453369 -134.12597656 148.24755859 C-125.28368661 131.99242598 -125.28368661 131.99242598 -116.9140625 115.4921875 C-112.59016349 106.62280801 -107.71112276 98.04752658 -102.91748047 89.42675781 C-98.84217398 82.08938686 -94.87743849 74.70679274 -91.0390625 67.2421875 C-80.93823178 47.73849009 -68.92152706 29.31364498 -54.8515625 12.4296875 C-54.366875 11.8109375 -53.8821875 11.1921875 -53.3828125 10.5546875 C-46.28758201 1.72506733 -36.73836228 -5.31694113 -25.7890625 -8.4453125 C-16.21328809 -8.85279226 -7.47359168 -6.33836257 0 0 Z " fill="#C77428" transform="translate(261.8515625,28.5703125)"/>
<path d="M0 0 C1.1484375 1.4296875 1.1484375 1.4296875 1.1484375 3.4296875 C-0.17220703 3.39488281 -0.17220703 3.39488281 -1.51953125 3.359375 C-2.68097656 3.34132813 -3.84242188 3.32328125 -5.0390625 3.3046875 C-6.18761719 3.28148437 -7.33617187 3.25828125 -8.51953125 3.234375 C-11.81379249 3.42747355 -13.97168655 3.83970114 -16.8515625 5.4296875 C-17.1815625 6.4196875 -17.5115625 7.4096875 -17.8515625 8.4296875 C-18.8415625 8.8009375 -19.8315625 9.1721875 -20.8515625 9.5546875 C-47.22891301 20.22357521 -65.78631139 71.60865692 -77.46362305 95.7644043 C-79.24652463 99.18813984 -80.2069054 100.09535638 -83.8515625 101.4296875 C-87.64716318 101.63056468 -91.37662828 101.39100712 -95.1640625 101.1171875 C-96.19080078 101.05595703 -97.21753906 100.99472656 -98.27539062 100.93164062 C-100.80206466 100.77886499 -103.32680937 100.61109357 -105.8515625 100.4296875 C-106.49946076 94.5338133 -104.38880412 91.1235776 -101.4765625 86.2421875 C-100.54858035 84.63538367 -99.62286774 83.02726735 -98.69921875 81.41796875 C-98.22371582 80.59377441 -97.74821289 79.76958008 -97.25830078 78.92041016 C-95.03298185 74.98033662 -92.9836388 70.95298702 -90.9140625 66.9296875 C-80.81725915 47.55832833 -68.84442023 29.22111677 -54.8515625 12.4296875 C-54.366875 11.8109375 -53.8821875 11.1921875 -53.3828125 10.5546875 C-46.28758201 1.72506733 -36.73836228 -5.31694113 -25.7890625 -8.4453125 C-16.21328809 -8.85279226 -7.47359168 -6.33836257 0 0 Z " fill="#EFAC56" transform="translate(261.8515625,28.5703125)"/>
<path d="M0 0 C6.78897452 5.54202002 12.44649149 11.19280573 16.75 18.875 C18.52890161 21.66701938 19.34967739 22.79489825 22.5390625 23.80078125 C24.44125115 24.06017061 26.3464627 24.29822302 28.25390625 24.515625 C32.90426534 25.33588749 35.86160058 27.54776064 39 31 C45.25031592 39.95528457 45.25031592 39.95528457 44.65234375 44.83984375 C44.32943359 45.90912109 44.32943359 45.90912109 44 47 C44.77053711 47.08467529 45.54107422 47.16935059 46.33496094 47.2565918 C49 48 49 48 50.46972656 49.70239258 C51.04932129 50.78750122 51.04932129 50.78750122 51.640625 51.89453125 C52.07117188 52.68537109 52.50171875 53.47621094 52.9453125 54.29101562 C53.37585938 55.12310547 53.80640625 55.95519531 54.25 56.8125 C54.69601563 57.63298828 55.14203125 58.45347656 55.6015625 59.29882812 C59.66401272 66.88822376 59.66401272 66.88822376 60 70 C59.09130859 72.40673828 59.09130859 72.40673828 57.6484375 75.0703125 C57.12636719 76.05 56.60429687 77.0296875 56.06640625 78.0390625 C55.50824219 79.05742188 54.95007813 80.07578125 54.375 81.125 C53.2986966 83.12718368 52.22316913 85.12978469 51.1484375 87.1328125 C50.61573242 88.10766602 50.08302734 89.08251953 49.53417969 90.08691406 C47.63512722 93.69281699 45.9695207 97.38978156 44.35791016 101.13232422 C43 103 43 103 40.59912109 103.89501953 C37.48283484 104.02088869 36.45257448 103.94549562 34 102 C32.47233508 99.44999754 31.157419 96.98832599 29.8828125 94.31640625 C29.50317352 93.54626694 29.12353455 92.77612762 28.73239136 91.98265076 C27.51848773 89.51468113 26.32124909 87.03906804 25.125 84.5625 C23.54834644 81.33263453 21.96553158 78.10580279 20.3828125 74.87890625 C20.00269012 74.10097717 19.62256775 73.3230481 19.23092651 72.52154541 C16.32014419 66.58566168 13.23505899 60.76591818 10 55 C6.9960692 49.54348558 5.84460812 46.00110317 6.25 39.6875 C6.60077152 28.5407605 -1.87118197 20.79785889 -8.921875 12.9609375 C-10.91250501 11.08256106 -12.44673021 9.95090912 -15 9 C-17.65491264 9.31606103 -19.61205246 9.80602623 -22 11 C-22 9.68 -22 8.36 -22 7 C-20.88625 6.525625 -19.7725 6.05125 -18.625 5.5625 C-16.73289006 4.74693537 -14.84287291 3.92143645 -13 3 C-10.795636 2.77049681 -8.58607827 2.58924067 -6.375 2.4375 C-4.59222656 2.31181641 -4.59222656 2.31181641 -2.7734375 2.18359375 C-1.85820313 2.12300781 -0.94296875 2.06242187 0 2 C0 1.34 0 0.68 0 0 Z " fill="#A31A24" transform="translate(108,28)"/>
<path d="M0 0 C17.85760075 13.80372012 25.22640489 41.45796682 28 63 C28.36335506 68.41484201 28.50645169 73.82517982 28.625 79.25 C28.66333251 80.66278041 28.70239201 82.07554129 28.7421875 83.48828125 C28.98775802 92.66101572 29.0333263 101.82415781 29 111 C22.07 111 15.14 111 8 111 C7.96261719 109.24558594 7.92523438 107.49117188 7.88671875 105.68359375 C7.09114579 74.61253547 5.64879526 32.15594113 -17.99609375 8.5703125 C-19 7 -19 7 -18.78125 4.8828125 C-18 3 -18 3 -16.0625 1.75 C-10.75705383 0.45070706 -5.20350084 0.26549972 0 2 C0 1.34 0 0.68 0 0 Z " fill="#1A9EB0" transform="translate(263,30)"/>
<path d="M0 0 C4.19831979 1.39943993 4.86309516 3.03913298 6.81103516 6.85717773 C7.1982373 7.67259033 7.58543945 8.48800293 7.984375 9.328125 C8.40122559 10.16480713 8.81807617 11.00148926 9.24755859 11.86352539 C10.13425666 13.65464223 11.01006676 15.45118262 11.87597656 17.25244141 C13.26249277 20.1366144 14.67989265 23.00410781 16.1015625 25.87109375 C17.02285679 27.7516142 17.94218055 29.63310152 18.859375 31.515625 C19.29733398 32.40862305 19.73529297 33.30162109 20.18652344 34.22167969 C20.7864209 35.47899902 20.7864209 35.47899902 21.3984375 36.76171875 C21.75373535 37.49962646 22.1090332 38.23753418 22.47509766 38.99780273 C23.234375 41.078125 23.234375 41.078125 23.234375 45.078125 C23.894375 45.078125 24.554375 45.078125 25.234375 45.078125 C33.79259418 60.62264555 33.79259418 60.62264555 32.234375 67.078125 C30.19162135 70.07048305 27.83544089 72.56617486 25.234375 75.078125 C24.43 75.8825 23.625625 76.686875 22.796875 77.515625 C22.28125 78.03125 21.765625 78.546875 21.234375 79.078125 C21.234375 79.408125 21.234375 79.738125 21.234375 80.078125 C14.80744801 81.3635104 10.16562997 81.0039072 4.234375 78.078125 C-2.55746634 72.67552393 -5.59026174 66.47357689 -6.765625 58.078125 C-7.384375 57.77648437 -8.003125 57.47484375 -8.640625 57.1640625 C-11.41262941 55.74748671 -11.9208009 54.38237702 -13.203125 51.578125 C-15.29034334 47.08507866 -17.55100983 42.73932913 -19.9453125 38.40234375 C-21.23277478 34.75453396 -20.22151012 32.05203943 -18.61401367 28.61791992 C-18.1419751 27.77334229 -17.66993652 26.92876465 -17.18359375 26.05859375 C-16.66345703 25.11822266 -16.14332031 24.17785156 -15.60742188 23.20898438 C-15.06150391 22.23767578 -14.51558594 21.26636719 -13.953125 20.265625 C-12.88280327 18.3431774 -11.81376984 16.42001192 -10.74609375 14.49609375 C-10.2361084 13.57876465 -9.72612305 12.66143555 -9.20068359 11.71630859 C-7.893919 9.31397818 -6.65136525 6.89358254 -5.44140625 4.44140625 C-3.27453004 0.09250085 -3.27453004 0.09250085 0 0 Z " fill="#03395B" transform="translate(183.765625,134.921875)"/>
<path d="M0 0 C0.33 0 0.66 0 1 0 C1.06731323 1.16849487 1.06731323 1.16849487 1.13598633 2.3605957 C2.81283191 47.7821271 2.81283191 47.7821271 23 87 C25.72024707 89.46645431 25.72024707 89.46645431 28 91 C27.505 92.98 27.505 92.98 27 95 C19.78484162 96.96960599 9.16233614 98.36101602 2.47265625 94.56640625 C0.62731914 92.48674062 -0.66881183 90.43851286 -2 88 C-2.50144531 87.27554688 -3.00289062 86.55109375 -3.51953125 85.8046875 C-17.75679942 64.53889454 -22.28252582 32.99090215 -22 8 C-20.20841511 7.97303635 -18.41671527 7.95362083 -16.625 7.9375 C-15.62726562 7.92589844 -14.62953125 7.91429687 -13.6015625 7.90234375 C-11 8 -11 8 -9 9 C-5.99525503 9.13559318 -3.00931153 9.04299016 0 9 C0 6.03 0 3.06 0 0 Z " fill="#035067" transform="translate(61,138)"/>
<path d="M0 0 C6.78897452 5.54202002 12.44649149 11.19280573 16.75 18.875 C18.52890161 21.66701938 19.34967739 22.79489825 22.5390625 23.80078125 C24.44125115 24.06017061 26.3464627 24.29822302 28.25390625 24.515625 C32.90005181 25.33514427 35.87010783 27.54351039 39 31 C41.38271548 34.50399335 43.50862416 38.02507778 45 42 C44.67 42.99 44.34 43.98 44 45 C41.75 45 41.75 45 39 44 C38.0234375 42.36328125 38.0234375 42.36328125 37.125 40.3125 C35.1161271 35.78028674 32.32462433 32.50372987 28 30 C26.68 30 25.36 30 24 30 C24.495 31.485 24.495 31.485 25 33 C25.598125 33.2475 26.19625 33.495 26.8125 33.75 C29.68637311 35.39221321 30.56503902 37.36616969 32.0703125 40.24609375 C33.09791729 42.25566677 33.09791729 42.25566677 35 45 C34.88647461 47.01489258 34.88647461 47.01489258 34 49 C32.17407227 50.44799805 32.17407227 50.44799805 29.81640625 51.76171875 C28.97142578 52.24060547 28.12644531 52.71949219 27.25585938 53.21289062 C26.36705078 53.69951172 25.47824219 54.18613281 24.5625 54.6875 C23.67755859 55.18572266 22.79261719 55.68394531 21.88085938 56.19726562 C15.97146739 59.5142663 15.97146739 59.5142663 13 61 C5.4666673 47.10561341 5.4666673 47.10561341 6.0625 39.3125 C6.65531076 29.2347171 -0.51187171 22.58557283 -6.75 15.375 C-9.29652809 12.54450654 -11.39448026 10.34279645 -15 9 C-17.65491264 9.31606103 -19.61205246 9.80602623 -22 11 C-22 9.68 -22 8.36 -22 7 C-20.88625 6.525625 -19.7725 6.05125 -18.625 5.5625 C-16.73289006 4.74693537 -14.84287291 3.92143645 -13 3 C-10.795636 2.77049681 -8.58607827 2.58924067 -6.375 2.4375 C-4.59222656 2.31181641 -4.59222656 2.31181641 -2.7734375 2.18359375 C-1.85820313 2.12300781 -0.94296875 2.06242187 0 2 C0 1.34 0 0.68 0 0 Z " fill="#05324F" transform="translate(108,28)"/>
<path d="M0 0 C0.33 0.66 0.66 1.32 1 2 C1.66 2 2.32 2 3 2 C11.55821918 17.54452055 11.55821918 17.54452055 10 24 C7.95724635 26.99235805 5.60106589 29.48804986 3 32 C2.195625 32.804375 1.39125 33.60875 0.5625 34.4375 C0.046875 34.953125 -0.46875 35.46875 -1 36 C-1 36.33 -1 36.66 -1 37 C-7.42692699 38.2853854 -12.06874503 37.9257822 -18 35 C-23.8158328 30.37376936 -27.66358801 24.25907898 -29 17 C-28.3294458 16.68772461 -27.6588916 16.37544922 -26.96801758 16.05371094 C-23.91286009 14.62612157 -20.86268554 13.18817986 -17.8125 11.75 C-16.75740234 11.25886719 -15.70230469 10.76773438 -14.61523438 10.26171875 C-13.59365234 9.77832031 -12.57207031 9.29492188 -11.51953125 8.796875 C-10.58214111 8.35698242 -9.64475098 7.91708984 -8.67895508 7.46386719 C-5.19712527 5.56128343 -1.81206491 3.62412983 0 0 Z " fill="#95161B" transform="translate(206,178)"/>
<path d="M0 0 C0.40089844 0.53625 0.80179688 1.0725 1.21484375 1.625 C2.53389259 3.37988336 3.86057969 5.12903146 5.19140625 6.875 C5.97386719 7.90625 6.75632813 8.9375 7.5625 10 C8.34753906 11.03125 9.13257813 12.0625 9.94140625 13.125 C11.56606643 15.39397513 12.87203933 17.46361277 14 20 C14.66 20 15.32 20 16 20 C16 20.66 16 21.32 16 22 C16.5775 22.268125 17.155 22.53625 17.75 22.8125 C20 24 20 24 21.9375 25.6875 C23.91877969 27.18523061 23.91877969 27.18523061 26.3125 27.125 C30.42843763 25.40204936 33.03935011 22.26780665 36 19 C36 22.59964985 35.45850257 22.97350971 33 25.4375 C27.3939503 30.72961092 22.80878325 33.21996622 15 33.25 C13.33245759 33.18656089 11.66510666 33.11019088 10 33 C10.33 33.99 10.66 34.98 11 36 C2.80647192 32.65334769 -5.5899179 22.55773611 -10 15 C-10.6484375 12.77734375 -10.6484375 12.77734375 -11 11 C-10.28972656 10.37351563 -9.57945312 9.74703125 -8.84765625 9.1015625 C-7.46900391 7.87566406 -7.46900391 7.87566406 -6.0625 6.625 C-5.14597656 5.81289062 -4.22945312 5.00078125 -3.28515625 4.1640625 C-0.96398605 2.21290653 -0.96398605 2.21290653 0 0 Z " fill="#032740" transform="translate(215,202)"/>
<path d="M0 0 C4.78549285 0.09766312 7.28205472 0.80964488 10.8125 4.125 C13.99830202 7.57509501 15.15846821 10.41832693 16 15 C17.65 14.67 19.3 14.34 21 14 C21 15.32 21 16.64 21 18 C21.77053711 18.08467529 22.54107422 18.16935059 23.33496094 18.2565918 C26 19 26 19 27.46972656 20.70239258 C27.85612305 21.42579834 28.24251953 22.1492041 28.640625 22.89453125 C29.07117188 23.68537109 29.50171875 24.47621094 29.9453125 25.29101562 C30.37585938 26.12310547 30.80640625 26.95519531 31.25 27.8125 C31.69601563 28.63298828 32.14203125 29.45347656 32.6015625 30.29882812 C36.37414229 37.34669311 36.37414229 37.34669311 37 41 C36.22265625 43.140625 36.22265625 43.140625 35.0625 45.25 C34.49208984 46.30960938 34.49208984 46.30960938 33.91015625 47.390625 C33.60980469 47.92171875 33.30945313 48.4528125 33 49 C31.68 49 30.36 49 29 49 C28.40832031 47.865625 27.81664062 46.73125 27.20703125 45.5625 C26.40901803 44.04158068 25.61083165 42.5207522 24.8125 41 C24.42513672 40.25621094 24.03777344 39.51242188 23.63867188 38.74609375 C20.97471895 33.68238159 18.1009827 28.80828371 15 24 C9.63686239 24.62976237 5.61430655 27.45474859 1.171875 30.29296875 C-1.75325806 32.06712554 -3.47332206 33.04622439 -6.9375 32.7421875 C-7.618125 32.49726562 -8.29875 32.25234375 -9 32 C-5.49584029 27.97943781 -1.37014303 25.75597864 3.25 23.25 C3.99507812 22.83878906 4.74015625 22.42757812 5.5078125 22.00390625 C7.33519231 20.99650456 9.16714863 19.99741214 11 19 C9.40447966 12.21178617 6.08185961 7.69767349 1.42578125 2.63671875 C0 1 0 1 0 0 Z " fill="#D5625D" transform="translate(131,57)"/>
<path d="M0 0 C0.33 0.66 0.66 1.32 1 2 C1.66 2 2.32 2 3 2 C11.55821918 17.54452055 11.55821918 17.54452055 10 24 C7.95724635 26.99235805 5.60106589 29.48804986 3 32 C2.195625 32.804375 1.39125 33.60875 0.5625 34.4375 C0.046875 34.953125 -0.46875 35.46875 -1 36 C-1 36.33 -1 36.66 -1 37 C-7.42692699 38.2853854 -12.06874503 37.9257822 -18 35 C-23.04488688 30.9870218 -27.11813812 25.25610541 -28.8125 19 C-28.874375 18.34 -28.93625 17.68 -29 17 C-27.35 16.67 -25.7 16.34 -24 16 C-23.69707031 16.66386719 -23.39414063 17.32773438 -23.08203125 18.01171875 C-19.67923375 25.38321518 -19.67923375 25.38321518 -14 31 C-10.99717135 31.66842054 -8.07161905 31.92638821 -5 32 C-6.83333333 28.83333333 -6.83333333 28.83333333 -10 27 C-7.36 27 -4.72 27 -2 27 C-2 23.7 -2 20.4 -2 17 C-0.35 17.33 1.3 17.66 3 18 C2.54554036 16.58208592 2.08625056 15.16571954 1.625 13.75 C1.36976563 12.96109375 1.11453125 12.1721875 0.8515625 11.359375 C0.06292644 8.98796348 0.06292644 8.98796348 -1.15625 6.875 C-2 5 -2 5 -1.125 2.25 C-0.75375 1.5075 -0.3825 0.765 0 0 Z " fill="#4D1017" transform="translate(206,178)"/>
<path d="M0 0 C4.41582417 3.6646265 6.38844895 8.36992683 8.8125 13.4375 C9.68961574 15.23785259 10.56852751 17.03733126 11.44921875 18.8359375 C11.87895996 19.71475586 12.30870117 20.59357422 12.75146484 21.49902344 C14.96542714 25.93387478 17.38426042 30.24999139 19.8203125 34.56640625 C21 37 21 37 21 40 C22.485 39.505 22.485 39.505 24 39 C24 40.32 24 41.64 24 43 C19.05102833 47.77400803 7.90388674 55 1 55 C1 53.68 1 52.36 1 51 C5.95 48.36 10.9 45.72 16 43 C14.6002078 38.80062339 13.33592099 35.46148457 11.3203125 31.62890625 C10.80339844 30.64212891 10.28648437 29.65535156 9.75390625 28.63867188 C9.21636719 27.62353516 8.67882812 26.60839844 8.125 25.5625 C7.59519531 24.55123047 7.06539062 23.53996094 6.51953125 22.49804688 C4.29761168 18.27198893 2.0692914 14.07862659 -0.39453125 9.98828125 C-2 7 -2 7 -1.8125 3.625 C-1 1 -1 1 0 0 Z " fill="#426C85" transform="translate(181,138)"/>
<path d="M0 0 C0.474375 1.134375 0.94875 2.26875 1.4375 3.4375 C4.85563517 11.16870028 9.00152108 18.55838646 13 26 C12.34 26.33 11.68 26.66 11 27 C11 28.65 11 30.3 11 32 C8.525 32.495 8.525 32.495 6 33 C6 32.34 6 31.68 6 31 C5.39027344 30.7628125 4.78054687 30.525625 4.15234375 30.28125 C1.46271678 28.68016534 0.8549813 27.32646429 -0.4375 24.5 C-2.52471834 20.00695366 -4.78538483 15.66120413 -7.1796875 11.32421875 C-8.19641354 8.44349496 -7.92010709 6.88491909 -7 4 C-3.75675676 0 -3.75675676 0 0 0 Z " fill="#26526E" transform="translate(171,162)"/>
<path d="M0 0 C1.98 0 3.96 0 6 0 C6.55461914 1.11036621 7.10923828 2.22073242 7.68066406 3.36474609 C9.74112564 7.48199892 11.81713932 11.5912408 13.89794922 15.69824219 C14.79642226 17.47701763 15.69066073 19.25793857 16.58056641 21.04101562 C17.86034086 23.60341799 19.15513786 26.15772258 20.453125 28.7109375 C20.84808167 29.50994476 21.24303833 30.30895203 21.64996338 31.13217163 C22.22010162 32.24309677 22.22010162 32.24309677 22.80175781 33.37646484 C23.13040833 34.02932465 23.45905884 34.68218445 23.79766846 35.35482788 C25.26983981 37.36922672 26.72145985 38.05373796 29 39 C29 37.02 29 35.04 29 33 C29.66 33 30.32 33 31 33 C31.99 29.535 31.99 29.535 33 26 C34.16015625 27.61328125 34.16015625 27.61328125 35 30 C34.05859375 32.98046875 34.05859375 32.98046875 32.4375 36.1875 C31.92058594 37.25355469 31.40367187 38.31960937 30.87109375 39.41796875 C29 42 29 42 26.53515625 42.98828125 C23.65204807 43.00160841 22.43177657 42.50073063 20 41 C18.84909058 39.42643738 18.84909058 39.42643738 17.92529297 37.54760742 C17.57167694 36.84314987 17.21806091 36.13869232 16.85372925 35.41288757 C16.48692047 34.65143936 16.12011169 33.88999115 15.7421875 33.10546875 C15.35306183 32.3210994 14.96393616 31.53673004 14.5630188 30.72859192 C13.32234013 28.22030259 12.09878278 25.70406864 10.875 23.1875 C10.04402997 21.50403305 9.2120103 19.82108377 8.37890625 18.13867188 C1.87606627 4.95381586 1.87606627 4.95381586 0 0 Z " fill="#8F181C" transform="translate(122,89)"/>
<path d="M0 0 C4.78549285 0.09766312 7.28205472 0.80964488 10.8125 4.125 C13.99830202 7.57509501 15.15846821 10.41832693 16 15 C17.65 14.67 19.3 14.34 21 14 C20.67 14.99 20.34 15.98 20 17 C19.34 17 18.68 17 18 17 C17.92813477 17.59707764 17.85626953 18.19415527 17.78222656 18.80932617 C16.18112857 23.29330005 10.71092023 25.09533151 6.75 27.3125 C5.79480469 27.87517578 4.83960938 28.43785156 3.85546875 29.01757812 C2.92863281 29.54416016 2.00179687 30.07074219 1.046875 30.61328125 C0.19963867 31.09579346 -0.64759766 31.57830566 -1.52050781 32.07543945 C-4.45592555 33.1700069 -6.03760994 32.88030791 -9 32 C-5.49584029 27.97943781 -1.37014303 25.75597864 3.25 23.25 C3.99507812 22.83878906 4.74015625 22.42757812 5.5078125 22.00390625 C7.33519231 20.99650456 9.16714863 19.99741214 11 19 C9.40447966 12.21178617 6.08185961 7.69767349 1.42578125 2.63671875 C0 1 0 1 0 0 Z " fill="#3E6480" transform="translate(131,57)"/>
<path d="M0 0 C3.91684982 1.30561661 4.12974013 2.62203296 5.9609375 6.25 C6.51523438 7.33410156 7.06953125 8.41820313 7.640625 9.53515625 C8.21296875 10.67855469 8.7853125 11.82195312 9.375 13 C10.50666809 15.22974786 11.63946264 17.4589244 12.7734375 19.6875 C13.31621338 20.76201416 13.85898926 21.83652832 14.41821289 22.94360352 C16.21056476 26.40686221 18.12211774 29.785299 20.10864258 33.14038086 C21.38467511 35.80253911 21.37039919 38.11088633 21 41 C18.52402635 40.63834458 17.33339961 40.43067151 15.77075195 38.41210938 C15.43003662 37.72955078 15.08932129 37.04699219 14.73828125 36.34375 C14.34560059 35.57611328 13.95291992 34.80847656 13.54833984 34.01757812 C13.1405127 33.18677734 12.73268555 32.35597656 12.3125 31.5 C11.43687748 29.77048911 10.56055983 28.04133001 9.68359375 26.3125 C9.24128418 25.43078125 8.79897461 24.5490625 8.34326172 23.640625 C7.04748405 21.0933456 5.70970596 18.57487136 4.34765625 16.0625 C3.93153076 15.29357422 3.51540527 14.52464844 3.08666992 13.73242188 C2.29202812 12.26834679 1.49412271 10.80603734 0.69262695 9.34570312 C-2 4.33332151 -2 4.33332151 -2 1 C-1.34 0.67 -0.68 0.34 0 0 Z " fill="#CB494A" transform="translate(130,87)"/>
<path d="M0 0 C1.86933899 0.29032898 1.86933899 0.29032898 4 1 C5.6206804 3.60069711 6.97203158 6.08355636 8.29296875 8.83203125 C8.68446609 9.62018723 9.07596344 10.4083432 9.47932434 11.22038269 C10.30517103 12.88922728 11.12431731 14.56140184 11.93725586 16.23657227 C13.18059405 18.79827139 14.44275066 21.34994321 15.70898438 23.90039062 C16.50893076 25.52288664 17.30779509 27.14591668 18.10546875 28.76953125 C18.48148727 29.53320511 18.8575058 30.29687897 19.24491882 31.08369446 C19.59230606 31.80091171 19.9396933 32.51812897 20.29760742 33.25708008 C20.60309006 33.88471756 20.90857269 34.51235504 21.22331238 35.15901184 C22.03490269 37.0827301 22.54640049 38.96471949 23 41 C20.525 41.495 20.525 41.495 18 42 C17.55011719 41.10023438 17.10023438 40.20046875 16.63671875 39.2734375 C16.3317749 38.6640332 16.02683105 38.05462891 15.71264648 37.42675781 C15.01919452 36.03886301 14.32734353 34.65016732 13.63696289 33.26074219 C11.45672486 28.88032926 9.23923066 24.5222137 6.984375 20.1796875 C6.47946533 19.19693848 5.97455566 18.21418945 5.4543457 17.20166016 C4.45196611 15.25110981 3.44022894 13.30533686 2.41870117 11.36474609 C1.95955322 10.46578613 1.50040527 9.56682617 1.02734375 8.640625 C0.61218506 7.84172852 0.19702637 7.04283203 -0.23071289 6.21972656 C-1.11077119 3.68037713 -0.91169197 2.48753042 0 0 Z " fill="#093752" transform="translate(184,136)"/>
<path d="M0 0 C3.48749314 2.78999451 6.50157221 5.25235831 9 9 C8.67 9.66 8.34 10.32 8 11 C4 11 4 11 1.75 10.0625 C-1.8454074 8.67336532 -5.16812226 8.38968248 -9 8 C-9 8.66 -9 9.32 -9 10 C-10.32 10 -11.64 10 -13 10 C-12.67 11.32 -12.34 12.64 -12 14 C-17.78461538 9.69230769 -17.78461538 9.69230769 -18.875 6.1875 C-18.91625 5.465625 -18.9575 4.74375 -19 4 C-13.70377384 0.65501506 -9.07583783 0.45620729 -3 1 C-2.01 1.33 -1.02 1.66 0 2 C0 1.34 0 0.68 0 0 Z " fill="#087B8F" transform="translate(263,30)"/>
<path d="M0 0 C0.33 0.66 0.66 1.32 1 2 C1.66 2 2.32 2 3 2 C6.49299205 6.29906713 6.34733262 9.70317752 6 15 C5.67 15.66 5.34 16.32 5 17 C6.32 17.33 7.64 17.66 9 18 C8.93170839 21.41458042 8.80324393 24.04087046 6.55078125 26.73046875 C0.51395122 32.03397452 -4.08045083 33.26845929 -12 33 C-12 32.67 -12 32.34 -12 32 C-9.69 32 -7.38 32 -5 32 C-6.83333333 28.83333333 -6.83333333 28.83333333 -10 27 C-7.36 27 -4.72 27 -2 27 C-2 23.7 -2 20.4 -2 17 C-0.35 17.33 1.3 17.66 3 18 C2.54554036 16.58208592 2.08625056 15.16571954 1.625 13.75 C1.36976563 12.96109375 1.11453125 12.1721875 0.8515625 11.359375 C0.06292644 8.98796348 0.06292644 8.98796348 -1.15625 6.875 C-2 5 -2 5 -1.125 2.25 C-0.75375 1.5075 -0.3825 0.765 0 0 Z " fill="#952226" transform="translate(206,178)"/>
<path d="M0 0 C4.57026181 0.50223182 4.57026181 0.50223182 6.46972656 2.70239258 C6.85612305 3.42579834 7.24251953 4.1492041 7.640625 4.89453125 C8.07117188 5.68537109 8.50171875 6.47621094 8.9453125 7.29101562 C9.37585938 8.12310547 9.80640625 8.95519531 10.25 9.8125 C10.69601563 10.63298828 11.14203125 11.45347656 11.6015625 12.29882812 C15.37414229 19.34669311 15.37414229 19.34669311 16 23 C15.22265625 25.140625 15.22265625 25.140625 14.0625 27.25 C13.68222656 27.95640625 13.30195313 28.6628125 12.91015625 29.390625 C12.60980469 29.92171875 12.30945313 30.4528125 12 31 C10 28 10 28 10.1875 25.3828125 C9.91280454 20.42684854 7.52666894 17.06107584 5 12.875 C4.05477075 11.29365701 3.11694188 9.70786088 2.1875 8.1171875 C1.76855469 7.42222168 1.34960938 6.72725586 0.91796875 6.01123047 C0 4 0 4 0 0 Z " fill="#8F181D" transform="translate(152,75)"/>
<path d="M0 0 C0.33 0 0.66 0 1 0 C1.23589844 1.13824219 1.47179687 2.27648437 1.71484375 3.44921875 C2.93552283 8.33085958 5.12045872 12.44151615 7.5625 16.8125 C8.37821535 18.29712746 9.19209696 19.78276432 10.00390625 21.26953125 C10.36299072 21.91510986 10.7220752 22.56068848 11.09204102 23.22583008 C12 25 12 25 13 28 C12.34 28 11.68 28 11 28 C11 28.66 11 29.32 11 30 C7.31149806 28.56514935 6.19063354 27.06048581 4.5625 23.5 C2.47528166 19.00695366 0.21461517 14.66120413 -2.1796875 10.32421875 C-3.20042419 7.43213145 -2.91765557 5.8996024 -2 3 C-1.34 2.01 -0.68 1.02 0 0 Z " fill="#08344E" transform="translate(166,163)"/>
<path d="M0 0 C1.59888681 2.43487619 2.96129981 4.96905961 4.3671875 7.51953125 C6.64213534 10.97549267 9.19786673 12.54424246 12.75 14.5625 C13.86375 15.2740625 13.86375 15.2740625 15 16 C15 16.66 15 17.32 15 18 C7.03369066 18.78101072 7.03369066 18.78101072 3.1875 15.875 C2.1046875 14.451875 2.1046875 14.451875 1 13 C0.2575 12.030625 -0.485 11.06125 -1.25 10.0625 C-3.04412432 6.92278243 -3.65966603 4.57350669 -4 1 C-2 0 -2 0 0 0 Z " fill="#C64C4C" transform="translate(186,192)"/>
<path d="M0 0 C1.98 0 3.96 0 6 0 C7.67333158 3.12147545 9.33751716 6.24773498 11 9.375 C11.47695312 10.26445313 11.95390625 11.15390625 12.4453125 12.0703125 C12.89648438 12.92109375 13.34765625 13.771875 13.8125 14.6484375 C14.23144531 15.43395996 14.65039062 16.21948242 15.08203125 17.02880859 C16 19 16 19 16 21 C15.34 21 14.68 21 14 21 C13.67 21.66 13.34 22.32 13 23 C12.7525 22.4225 12.505 21.845 12.25 21.25 C11.11852582 18.92558808 11.11852582 18.92558808 9.15625 17.34375 C6.34243343 14.28525372 4.91262347 11.0247975 3.25 7.25 C2.93417969 6.55261719 2.61835937 5.85523437 2.29296875 5.13671875 C1.52058048 3.42810227 0.75917018 1.71453041 0 0 Z " fill="#891D23" transform="translate(122,89)"/>
<path d="M0 0 C-0.33679327 2.79817815 -0.7243203 3.77917493 -2.96191406 5.5715332 C-5.71672038 7.16726662 -8.47194414 8.7574528 -11.25 10.3125 C-12.20519531 10.87517578 -13.16039062 11.43785156 -14.14453125 12.01757812 C-15.07136719 12.54416016 -15.99820313 13.07074219 -16.953125 13.61328125 C-17.80036133 14.09579346 -18.64759766 14.57830566 -19.52050781 15.07543945 C-22.45592555 16.1700069 -24.03760994 15.88030791 -27 15 C-24.31807005 12.13528957 -21.77244084 10.0956808 -18.33984375 8.203125 C-17.46392578 7.71972656 -16.58800781 7.23632812 -15.68554688 6.73828125 C-14.77869141 6.24714844 -13.87183594 5.75601563 -12.9375 5.25 C-12.02677734 4.74339844 -11.11605469 4.23679687 -10.17773438 3.71484375 C-3.38387593 0 -3.38387593 0 0 0 Z " fill="#939295" transform="translate(149,74)"/>
<path d="M0 0 C3.55763022 1.18587674 4.07511896 2.44209861 5.75366211 5.66162109 C6.21591187 6.60255615 6.21591187 6.60255615 6.6875 7.5625 C7.00275635 8.19494629 7.3180127 8.82739258 7.64282227 9.47900391 C9.93500463 14.31592344 10.73558723 17.7458055 10 23 C9.34 23 8.68 23 8 23 C6.32326863 19.90116855 4.6603866 16.79511545 3 13.6875 C2.52304688 12.80642578 2.04609375 11.92535156 1.5546875 11.01757812 C1.10351562 10.17001953 0.65234375 9.32246094 0.1875 8.44921875 C-0.23144531 7.66893311 -0.65039062 6.88864746 -1.08203125 6.0847168 C-2 4 -2 4 -2 1 C-1.34 0.67 -0.68 0.34 0 0 Z " fill="#D45A58" transform="translate(130,87)"/>
<path d="M0 0 C0.30292969 0.66386719 0.60585937 1.32773438 0.91796875 2.01171875 C3.66187189 7.95943105 3.66187189 7.95943105 7.8125 12.9375 C8.534375 13.618125 9.25625 14.29875 10 15 C10 15.99 10 16.98 10 18 C7.16270882 18.05674582 5.5733052 18.06232639 3 17 C0.53884898 14.25551105 -1.24570869 11.23158926 -3 8 C-3.38542969 7.30519531 -3.77085937 6.61039063 -4.16796875 5.89453125 C-5 4 -5 4 -5 1 C-3 0 -3 0 0 0 Z " fill="#861A20" transform="translate(182,194)"/>
<path d="M0 0 C1.87109375 0.23828125 1.87109375 0.23828125 4 1 C5.16015625 2.85546875 5.16015625 2.85546875 6.0625 5.1875 C6.38863281 5.99445313 6.71476562 6.80140625 7.05078125 7.6328125 C7.36402344 8.41398437 7.67726563 9.19515625 8 10 C8.98589105 12.00699249 9.97964496 14.01030767 11 16 C9.35 16.66 7.7 17.32 6 18 C-0.88838269 6.66287016 -0.88838269 6.66287016 0 0 Z " fill="#2A5B7B" transform="translate(119,68)"/>
<path d="M0 0 C2.0625 0.4375 2.0625 0.4375 4 1 C3.01 1.66 2.02 2.32 1 3 C1.66 4.051875 2.32 5.10375 3 6.1875 C4.7771585 9.26623937 5.43806506 11.38596328 5 15 C1.75480334 14.69593558 0.38099448 14.43719323 -1.80078125 11.93359375 C-2.29964844 11.10988281 -2.79851562 10.28617188 -3.3125 9.4375 C-3.82425781 8.61121094 -4.33601562 7.78492188 -4.86328125 6.93359375 C-5.23839844 6.29550781 -5.61351562 5.65742188 -6 5 C-5.195625 4.360625 -4.39125 3.72125 -3.5625 3.0625 C-1.7249496 1.59396498 -1.7249496 1.59396498 0 0 Z " fill="#B73C3C" transform="translate(204,181)"/>
<path d="M0 0 C1.98 1.65 3.96 3.3 6 5 C5.67 5.66 5.34 6.32 5 7 C4.67 6.67 4.34 6.34 4 6 C3.34 6.66 2.68 7.32 2 8 C2 6.35 2 4.7 2 3 C-5.04207705 3.7187807 -5.04207705 3.7187807 -12 5 C-12 5.66 -12 6.32 -12 7 C-13.65 7 -15.3 7 -17 7 C-17.33 7.66 -17.66 8.32 -18 9 C-18.33 7.35 -18.66 5.7 -19 4 C-13.70377384 0.65501506 -9.07583783 0.45620729 -3 1 C-2.01 1.33 -1.02 1.66 0 2 C0 1.34 0 0.68 0 0 Z " fill="#0C5960" transform="translate(263,30)"/>
<path d="M0 0 C0.33 0.66 0.66 1.32 1 2 C1.99 2.33 2.98 2.66 4 3 C3.01 3 2.02 3 1 3 C1.80984967 7.69925926 2.64446154 11.76335239 5.25 15.8125 C7 19 7 19 6.375 21.375 C5 23 5 23 3 24 C-0.25711277 18.22125154 -1.69343615 13.62177926 -2 7 C-1.67 7 -1.34 7 -1 7 C-0.67 4.69 -0.34 2.38 0 0 Z " fill="#0C3E5F" transform="translate(118,65)"/>
<path d="M0 0 C0.33 0 0.66 0 1 0 C1.68416471 11.34980389 2.15298709 22.62795953 2 34 C1.01 34.495 1.01 34.495 0 35 C-0.36532144 32.14686976 -0.71751313 29.29310096 -1.0625 26.4375 C-1.2181543 25.23770508 -1.2181543 25.23770508 -1.37695312 24.01367188 C-1.96060719 19.08280136 -1.93682483 14.88066085 -1 10 C-2.65 10 -4.3 10 -6 10 C-6 9.67 -6 9.34 -6 9 C-4.02 9 -2.04 9 0 9 C0 6.03 0 3.06 0 0 Z " fill="#064754" transform="translate(61,138)"/>
<path d="M0 0 C0 0.66 0 1.32 0 2 C-2.6226232 3.33819498 -5.24786599 4.6707151 -7.875 6 C-8.99455078 6.57234375 -8.99455078 6.57234375 -10.13671875 7.15625 C-10.85214844 7.5171875 -11.56757813 7.878125 -12.3046875 8.25 C-12.96452637 8.58515625 -13.62436523 8.9203125 -14.30419922 9.265625 C-16 10 -16 10 -18 10 C-18 8.68 -18 7.36 -18 6 C-6.66287016 -0.88838269 -6.66287016 -0.88838269 0 0 Z " fill="#89898F" transform="translate(200,183)"/>
<path d="M0 0 C2.475 1.485 2.475 1.485 5 3 C4.67 4.32 4.34 5.64 4 7 C-0.37001146 8.22109588 -4.55003842 8.25873755 -9.0625 8.3125 C-9.87783203 8.34150391 -10.69316406 8.37050781 -11.53320312 8.40039062 C-13.76208724 8.42419958 -15.80763146 8.40573983 -18 8 C-20.05859375 5.98046875 -20.05859375 5.98046875 -21 4 C-20.07058594 4.16757813 -19.14117187 4.33515625 -18.18359375 4.5078125 C-8.9149319 6.14275222 -8.9149319 6.14275222 0 4 C0 2.68 0 1.36 0 0 Z " fill="#17262A" transform="translate(84,226)"/>
<path d="M0 0 C0.33 0.66 0.66 1.32 1 2 C-2.86216258 7.72867885 -6.81057812 13.14638837 -11.51953125 18.2109375 C-13.07743758 19.94945176 -13.07743758 19.94945176 -14.01171875 22.0859375 C-15.57436328 25.11240318 -18.12144374 26.32084218 -21 28 C-21.66 28 -22.32 28 -23 28 C-23.33 28.99 -23.66 29.98 -24 31 C-24.33 30.34 -24.66 29.68 -25 29 C-20 24 -20 24 -17.75 21.8125 C-11.08122118 14.99215802 -5.01375401 8.1399771 0 0 Z " fill="#965225" transform="translate(114,201)"/>
<path d="M0 0 C-2.96530268 1.97686846 -4.71734995 2.49274443 -8.125 3.25 C-15.26339841 5.10560489 -20.9229721 8.66912071 -26 14 C-26.99 13.67 -27.98 13.34 -29 13 C-9.96486004 -3.32162001 -9.96486004 -3.32162001 0 0 Z " fill="#D88530" transform="translate(242,21)"/>
<path d="M0 0 C2.25245881 2.68841859 3.88213958 4.64641875 5 8 C4.34 8 3.68 8 3 8 C3 9.65 3 11.3 3 13 C1.35 13.33 -0.3 13.66 -2 14 C-2 12.68 -2 11.36 -2 10 C-1.34 10 -0.68 10 0 10 C-0.165 9.443125 -0.33 8.88625 -0.5 8.3125 C-1.04440361 5.79463331 -1.13886391 3.56898237 -1 1 C-0.67 0.67 -0.34 0.34 0 0 Z " fill="#28506D" transform="translate(179,181)"/>
<path d="M0 0 C4.32596028 0.25446825 6.52002301 0.6119335 9.9375 3.375 C12 6 12 6 12 9 C5.87338476 8.87987029 5.87338476 8.87987029 3.421875 6.41015625 C0 1.6018319 0 1.6018319 0 0 Z " fill="#81181D" transform="translate(180,203)"/>
<path d="M0 0 C1.8125 0.125 1.8125 0.125 4 1 C7 6.03571429 7 6.03571429 7 9 C5.02 9.99 5.02 9.99 3 11 C-1.06153846 4.6 -1.06153846 4.6 -0.75 1.5625 C-0.5025 1.046875 -0.255 0.53125 0 0 Z " fill="#05334E" transform="translate(184,136)"/>
<path d="M0 0 C1.8046875 0.16796875 1.8046875 0.16796875 4 1 C5.6328125 3.36328125 5.6328125 3.36328125 7.125 6.3125 C7.62257812 7.27800781 8.12015625 8.24351563 8.6328125 9.23828125 C9.08398438 10.14964844 9.53515625 11.06101562 10 12 C10.58394531 13.16595703 10.58394531 13.16595703 11.1796875 14.35546875 C11.45039063 14.89816406 11.72109375 15.44085938 12 16 C11.34 16.99 10.68 17.98 10 19 C8.32992313 16.02273264 6.66451428 13.0428803 5 10.0625 C4.28457031 8.78729492 4.28457031 8.78729492 3.5546875 7.48632812 C3.10351562 6.67744141 2.65234375 5.86855469 2.1875 5.03515625 C1.76855469 4.2862915 1.34960938 3.53742676 0.91796875 2.76586914 C0 1 0 1 0 0 Z " fill="#CC5352" transform="translate(148,83)"/>
<path d="M0 0 C-0.36521637 2.55114378 -0.5985714 3.68767354 -2.671875 5.30078125 C-8.33076923 8.05576923 -8.33076923 8.05576923 -12 7.75 C-12.66 7.5025 -13.32 7.255 -14 7 C-9.80559946 3.42242307 -5.69511947 0 0 0 Z " fill="#838A8E" transform="translate(149,74)"/>
<path d="M0 0 C3.81247372 0.29326721 6.3293354 0.50130068 9.4375 2.8125 C11 5 11 5 11 9 C8.10957447 8.91498748 6.43757032 8.41707522 4.33203125 6.41015625 C0 1.37841449 0 1.37841449 0 0 Z " fill="#487391" transform="translate(131,57)"/>
<path d="M0 0 C7.23214286 3.75 7.23214286 3.75 9 8 C8.11957031 7.98839844 7.23914063 7.97679687 6.33203125 7.96484375 C5.17058594 7.95582031 4.00914062 7.94679688 2.8125 7.9375 C1.66394531 7.92589844 0.51539063 7.91429687 -0.66796875 7.90234375 C-3.59300586 7.98807168 -6.16316291 8.32150977 -9 9 C-8.67 8.34 -8.34 7.68 -8 7 C-5.93359375 6.5859375 -5.93359375 6.5859375 -3.4375 6.375 C-2.61121094 6.30023437 -1.78492188 6.22546875 -0.93359375 6.1484375 C0.02353516 6.07496094 0.02353516 6.07496094 1 6 C0.67 4.02 0.34 2.04 0 0 Z " fill="#926F3A" transform="translate(254,24)"/>
<path d="M0 0 C1.27228901 2.44670963 2.34836818 4.87092046 3.375 7.4375 C4.91095435 10.80478453 6.57014613 13.23499388 9 16 C8.34 16.33 7.68 16.66 7 17 C2.76069809 13.23173163 0.00165951 9.34521366 -2 4 C-2 3.01 -2 2.02 -2 1 C-1.34 0.67 -0.68 0.34 0 0 Z " fill="#CB5F5C" transform="translate(184,192)"/>
<path d="M0 0 C0 0.99 0 1.98 0 3 C-1.21558594 3.12117188 -2.43117188 3.24234375 -3.68359375 3.3671875 C-5.26828117 3.53597078 -6.8529139 3.70526816 -8.4375 3.875 C-9.23994141 3.95363281 -10.04238281 4.03226563 -10.86914062 4.11328125 C-12.92170994 4.33845763 -14.96293009 4.66222587 -17 5 C-17.33 5.66 -17.66 6.32 -18 7 C-18.33 6.01 -18.66 5.02 -19 4 C-17.35 4 -15.7 4 -14 4 C-14 3.34 -14 2.68 -14 2 C-9.35150485 -0.3992233 -5.08913926 -0.19957409 0 0 Z " fill="#056A7C" transform="translate(265,33)"/>
<path d="M0 0 C0.33 0.66 0.66 1.32 1 2 C0.19555664 3.97119141 0.19555664 3.97119141 -1.08984375 6.3515625 C-1.54423828 7.20234375 -1.99863281 8.053125 -2.46679688 8.9296875 C-2.95212891 9.81914062 -3.43746094 10.70859375 -3.9375 11.625 C-4.41896484 12.5221875 -4.90042969 13.419375 -5.39648438 14.34375 C-6.59058716 16.56643636 -7.79199381 18.78484826 -9 21 C-9.77387773 18.72695105 -10.12944984 17.41903552 -9.41088867 15.09301758 C-9.0832251 14.45001709 -8.75556152 13.8070166 -8.41796875 13.14453125 C-8.06283203 12.44005859 -7.70769531 11.73558594 -7.34179688 11.00976562 C-6.96087891 10.28466797 -6.57996094 9.55957031 -6.1875 8.8125 C-5.81818359 8.07580078 -5.44886719 7.33910156 -5.06835938 6.58007812 C-2.28101809 1.14050904 -2.28101809 1.14050904 0 0 Z " fill="#D18535" transform="translate(153,131)"/>
<path d="M0 0 C3.3 0 6.6 0 10 0 C10 0.33 10 0.66 10 1 C8.2984375 1.2165625 8.2984375 1.2165625 6.5625 1.4375 C3.19222799 1.61171478 3.19222799 1.61171478 2 3 C1.77329092 4.55753051 1.60564908 6.12377359 1.46484375 7.69140625 C1.37783203 8.63564453 1.29082031 9.57988281 1.20117188 10.55273438 C1.11416016 11.54595703 1.02714844 12.53917969 0.9375 13.5625 C0.84662109 14.55958984 0.75574219 15.55667969 0.66210938 16.58398438 C0.43741186 19.05565702 0.21689649 21.52763256 0 24 C-0.33 24 -0.66 24 -1 24 C-1.09579384 15.92138585 -1.12513633 8.01659634 0 0 Z " fill="#0B6476" transform="translate(271,141)"/>
<path d="M0 0 C4.95 0.33 9.9 0.66 15 1 C15 1.33 15 1.66 15 2 C12.36 2 9.72 2 7 2 C7.66 3.98 8.32 5.96 9 8 C5.08158173 6.69386058 2.67359191 5.16870152 0 2 C0 1.34 0 0.68 0 0 Z " fill="#734F33" transform="translate(67,233)"/>
<path d="M0 0 C3.63 0.33 7.26 0.66 11 1 C11 1.66 11 2.32 11 3 C8.41991408 4.29004296 6.44258426 4.20410224 3.5625 4.25 C2.59441406 4.27578125 1.62632812 4.3015625 0.62890625 4.328125 C-2 4 -2 4 -3.84765625 2.484375 C-4.22792969 1.99453125 -4.60820312 1.5046875 -5 1 C-2.525 1.495 -2.525 1.495 0 2 C0 1.34 0 0.68 0 0 Z " fill="#610F14" transform="translate(192,210)"/>
<path d="M0 0 C1.32 0.33 2.64 0.66 4 1 C3.92928 4.53599998 3.80836985 7.1041863 1.375 9.80078125 C-0.37220916 11.27675028 -2.13784833 12.67266996 -4 14 C-4.66 13.67 -5.32 13.34 -6 13 C-4.7934375 11.453125 -4.7934375 11.453125 -3.5625 9.875 C-1.22200704 6.62872304 -0.29641289 4.05097617 0 0 Z " fill="#74151A" transform="translate(211,195)"/>
<path d="M0 0 C0.66 0 1.32 0 2 0 C3.45184478 4.53701494 4.23509196 8.18061476 4 13 C3.34 13 2.68 13 2 13 C-0.40385693 8.79325038 -1.45226612 5.86186074 -1 1 C-0.67 0.67 -0.34 0.34 0 0 Z " fill="#2C5974" transform="translate(168,162)"/>
<path d="M0 0 C0.33 0 0.66 0 1 0 C1 7.59 1 15.18 1 23 C3.31 23.33 5.62 23.66 8 24 C8 24.33 8 24.66 8 25 C6.02 25 4.04 25 2 25 C1.67 26.32 1.34 27.64 1 29 C-0.01085428 25.65613602 -0.11543463 22.6251882 -0.09765625 19.140625 C-0.09443359 18.02558594 -0.09121094 16.91054687 -0.08789062 15.76171875 C-0.07951172 14.60285156 -0.07113281 13.44398438 -0.0625 12.25 C-0.05798828 11.07566406 -0.05347656 9.90132812 -0.04882812 8.69140625 C-0.03705094 5.79421928 -0.02060326 2.89713546 0 0 Z " fill="#21838F" transform="translate(39,121)"/>
<path d="M0 0 C0.99 0.33 1.98 0.66 3 1 C2.55269531 1.42410156 2.10539063 1.84820312 1.64453125 2.28515625 C-2.44951902 6.25699606 -5.813901 10.26912573 -9 15 C-9.33 14.01 -9.66 13.02 -10 12 C-8.671875 9.84375 -8.671875 9.84375 -6.75 7.5 C-6.12609375 6.7265625 -5.5021875 5.953125 -4.859375 5.15625 C-3.30253752 3.35084183 -1.71600221 1.65244658 0 0 Z " fill="#9A6625" transform="translate(232,41)"/>
<path d="M0 0 C0.66 0 1.32 0 2 0 C6 6.75 6 6.75 6 9 C5.34 9 4.68 9 4 9 C3.67 9.66 3.34 10.32 3 11 C2.71125 10.38125 2.4225 9.7625 2.125 9.125 C1.06279958 6.86674235 1.06279958 6.86674235 -1 5 C-0.625 2.375 -0.625 2.375 0 0 Z " fill="#A51B22" transform="translate(132,101)"/>
<path d="M0 0 C0.99 0 1.98 0 3 0 C1.63408831 3.54243452 0.09068516 6.92627929 -1.625 10.3125 C-2.07101563 11.19550781 -2.51703125 12.07851562 -2.9765625 12.98828125 C-3.31429687 13.65214844 -3.65203125 14.31601563 -4 15 C-4.33 15 -4.66 15 -5 15 C-4.5188509 9.22621075 -2.81532819 5.04140164 0 0 Z " fill="#917246" transform="translate(198,91)"/>
<path d="M0 0 C1.10732122 3.32196365 0.85064093 4.68250039 0 8 C-0.33 8.66 -0.66 9.32 -1 10 C-1.99 10 -2.98 10 -4 10 C-4.66 8.68 -5.32 7.36 -6 6 C-5.01 5.34 -4.02 4.68 -3 4 C-2.67 3.01 -2.34 2.02 -2 1 C-1.34 0.67 -0.68 0.34 0 0 Z " fill="#C25F5C" transform="translate(151,73)"/>
<path d="M0 0 C5.94 0.99 5.94 0.99 12 2 C9 5 9 5 6.3125 5.1875 C5.1678125 5.0946875 5.1678125 5.0946875 4 5 C4 4.34 4 3.68 4 3 C2.68 3.33 1.36 3.66 0 4 C0 2.68 0 1.36 0 0 Z " fill="#072A43" transform="translate(127,51)"/>
<path d="M0 0 C3.73678306 4.71159603 4.11284843 8.01903338 4 14 C3.01 13.34 2.02 12.68 1 12 C1 10.68 1 9.36 1 8 C0.34 8 -0.32 8 -1 8 C-0.67 5.36 -0.34 2.72 0 0 Z " fill="#4D0A0A" transform="translate(212,187)"/>
<path d="M0 0 C0.33 0.66 0.66 1.32 1 2 C1.66 2 2.32 2 3 2 C6.48523002 6.28951387 6.43371114 9.7087241 6 15 C5.34 15.66 4.68 16.32 4 17 C4.33 14.03 4.66 11.06 5 8 C4.34 8 3.68 8 3 8 C1.375 6.5 1.375 6.5 0 5 C-0.33 5.66 -0.66 6.32 -1 7 C-1 4.37886292 -0.68707555 2.49064888 0 0 Z " fill="#711718" transform="translate(206,178)"/>
<path d="M0 0 C0.33 0.66 0.66 1.32 1 2 C-0.21484375 4.8203125 -0.21484375 4.8203125 -1.9375 8.125 C-2.50339844 9.22070312 -3.06929687 10.31640625 -3.65234375 11.4453125 C-4.09707031 12.28835937 -4.54179687 13.13140625 -5 14 C-5.33 14 -5.66 14 -6 14 C-6.55027688 8.35966195 -5.04948489 5.57422734 -2 1 C-1.34 0.67 -0.68 0.34 0 0 Z " fill="#815A22" transform="translate(172,143)"/>
<path d="M0 0 C0.33 0.99 0.66 1.98 1 3 C-0.328125 4.90234375 -0.328125 4.90234375 -2.25 6.9375 C-4.16950789 8.99581528 -5.97239613 10.96134119 -7.609375 13.25390625 C-8.06828125 13.83011719 -8.5271875 14.40632813 -9 15 C-9.66 15 -10.32 15 -11 15 C-9.57911395 11.82431967 -7.83591377 9.50601536 -5.5 6.9375 C-3.44184439 4.66567993 -1.70861829 2.56292743 0 0 Z " fill="#D88B35" transform="translate(212,35)"/>
<path d="M0 0 C0.8353125 0.37125 0.8353125 0.37125 1.6875 0.75 C1.3575 1.74 1.0275 2.73 0.6875 3.75 C-2.75 5.375 -2.75 5.375 -6.3125 6.75 C-7.3025 7.245 -7.3025 7.245 -8.3125 7.75 C-7.98035849 4.65001254 -7.2579988 3.6954988 -5 1.4375 C-2.3125 -0.25 -2.3125 -0.25 0 0 Z " fill="#92692C" transform="translate(243.3125,33.25)"/>
<path d="M0 0 C0.680625 -0.01417969 1.36125 -0.02835938 2.0625 -0.04296875 C4 0.1875 4 0.1875 7 2.1875 C3.39006828 3.32230527 0.0157673 3.28765767 -3.75 3.25 C-4.92046875 3.24097656 -6.0909375 3.23195312 -7.296875 3.22265625 C-8.18890625 3.21105469 -9.0809375 3.19945312 -10 3.1875 C-6.54547866 0.88448577 -4.07448608 0.03858415 0 0 Z " fill="#532E18" transform="translate(94,241.8125)"/>
<path d="M0 0 C1.32 0.66 2.64 1.32 4 2 C2.68 4.97 1.36 7.94 0 11 C-2 8 -2 8 -1.7578125 5.95703125 C-1.171875 3.97135417 -0.5859375 1.98567708 0 0 Z " fill="#82312F" transform="translate(164,95)"/>
<path d="M0 0 C0.99 0.33 1.98 0.66 3 1 C4.1875 3.5625 4.1875 3.5625 5 6 C3.68 6.99 2.36 7.98 1 9 C-1.125 3.375 -1.125 3.375 0 0 Z " fill="#0C324F" transform="translate(120,80)"/>
<path d="M0 0 C0.99 0.33 1.98 0.66 3 1 C3 1.66 3 2.32 3 3 C3.66 3 4.32 3 5 3 C5 4.98 5 6.96 5 9 C4.01 9.495 4.01 9.495 3 10 C0.96564469 6.27034861 0 4.33094958 0 0 Z " fill="#951216" transform="translate(206,183)"/>
<path d="M0 0 C1.57554035 2.88628401 2.46276373 5.53342384 3.125 8.75 C3.29257813 9.54921875 3.46015625 10.3484375 3.6328125 11.171875 C3.81457031 12.07679688 3.81457031 12.07679688 4 13 C1 12 1 12 -0.25 9.875 C-1.18252152 6.30033417 -0.70486964 3.59483517 0 0 Z " fill="#033240" transform="translate(67,191)"/>
<path d="M0 0 C3.4375 1.3125 3.4375 1.3125 7 3 C7.33 3.99 7.66 4.98 8 6 C5.03 6 2.06 6 -1 6 C-0.01 5.67 0.98 5.34 2 5 C2 4.01 2 3.02 2 2 C1.34 2 0.68 2 0 2 C0 1.34 0 0.68 0 0 Z " fill="#B84143" transform="translate(193,204)"/>
<path d="M0 0 C0.66 0 1.32 0 2 0 C0.55049545 3.7910119 -1.15172566 7.3874638 -3 11 C-3.66 9.68 -4.32 8.36 -5 7 C-1.125 1.125 -1.125 1.125 0 0 Z " fill="#956F34" transform="translate(180,127)"/>
<path d="M0 0 C0.99 0.33 1.98 0.66 3 1 C3 1.99 3 2.98 3 4 C3.66 4 4.32 4 5 4 C5 4.66 5 5.32 5 6 C7.64 6 10.28 6 13 6 C12.67 6.66 12.34 7.32 12 8 C9.36624623 8.85419041 7.58254817 9.13707016 4.875 8.5 C1.9878539 6.19028312 1.27465679 3.44157334 0 0 Z " fill="#5C1612" transform="translate(139,123)"/>
<path d="M0 0 C0.99 0 1.98 0 3 0 C1.55049545 3.7910119 -0.15172566 7.3874638 -2 11 C-2.33 11 -2.66 11 -3 11 C-2.53199289 6.94393835 -2.12046792 3.53411321 0 0 Z " fill="#5E1F20" transform="translate(160,106)"/>
<path d="M0 0 C1.1875 1.5625 1.1875 1.5625 2 4 C0.625 7.75 0.625 7.75 -1 11 C-1.99 10.67 -2.98 10.34 -4 10 C-4 9.01 -4 8.02 -4 7 C-3.34 7 -2.68 7 -2 7 C-1.34 4.69 -0.68 2.38 0 0 Z " fill="#6A1A19" transform="translate(155,115)"/>
<path d="M0 0 C0 0.99 0 1.98 0 3 C-3 5 -3 5 -5.6875 4.625 C-6.450625 4.41875 -7.21375 4.2125 -8 4 C-4.5 0 -4.5 0 0 0 Z " fill="#87828A" transform="translate(130,85)"/>
<path d="M0 0 C0.33 0.66 0.66 1.32 1 2 C0.07137808 4.03412421 -0.93753473 6.03247172 -2 8 C-2.33 8.763125 -2.66 9.52625 -3 10.3125 C-4 12 -4 12 -7 13 C-5.35821735 8.22390502 -2.73453298 4.20617096 0 0 Z " fill="#D7A057" transform="translate(186,70)"/>
<path d="M0 0 C1.65 0 3.3 0 5 0 C4.34 0.66 3.68 1.32 3 2 C3.66868314 5.11332248 3.66868314 5.11332248 6.0625 6.1875 C6.701875 6.455625 7.34125 6.72375 8 7 C4.79604584 7 2.90600261 6.25664978 0 5 C0 3.35 0 1.7 0 0 Z " fill="#1D4867" transform="translate(129,56)"/>
<path d="M0 0 C1.98073365 0.280828 3.95958448 0.57496614 5.9375 0.875 C7.59072266 1.11863281 7.59072266 1.11863281 9.27734375 1.3671875 C10.17582031 1.57601562 11.07429688 1.78484375 12 2 C12.33 2.66 12.66 3.32 13 4 C11.3973218 4.10824843 9.79254252 4.18570645 8.1875 4.25 C7.29417969 4.29640625 6.40085937 4.3428125 5.48046875 4.390625 C3 4 3 4 1.17578125 1.984375 C0.78777344 1.32953125 0.39976563 0.6746875 0 0 Z " fill="#183037" transform="translate(63,230)"/>
<path d="M0 0 C0.99 0 1.98 0 3 0 C1.77472971 4.05281712 0.30119506 7.44360764 -2 11 C-2.33 9.68 -2.66 8.36 -3 7 C-2.34 7 -1.68 7 -1 7 C-0.67 4.69 -0.34 2.38 0 0 Z " fill="#81541C" transform="translate(161,160)"/>
<path d="M0 0 C0.99 0 1.98 0 3 0 C1.36121132 3.3946337 -0.3090372 6.3090372 -3 9 C-3.33 8.01 -3.66 7.02 -4 6 C-2.25 2.8125 -2.25 2.8125 0 0 Z " fill="#1E4A58" transform="translate(181,135)"/>
<path d="M0 0 C0 0.99 0 1.98 0 3 C-2.1875 4.75 -2.1875 4.75 -5 6 C-7.8125 5.6875 -7.8125 5.6875 -10 5 C-6.66666667 3.33333333 -3.33333333 1.66666667 0 0 Z " fill="#756F76" transform="translate(205,178)"/>
<path d="M0 0 C0.66 0 1.32 0 2 0 C0.84414715 3.91211733 -0.35534962 6.8745041 -3 10 C-4 7 -4 7 -3.22265625 5.17578125 C-2.1484375 3.45052083 -1.07421875 1.72526042 0 0 Z " fill="#8E7550" transform="translate(189,109)"/>
<path d="M0 0 C0.99 0 1.98 0 3 0 C2.6875 1.875 2.6875 1.875 2 4 C1.01 4.66 0.02 5.32 -1 6 C-1.99 5.67 -2.98 5.34 -4 5 C-2.1875 2.5 -2.1875 2.5 0 0 Z " fill="#A2A2A2" transform="translate(146,74)"/>
<path d="M0 0 C2.31 0.33 4.62 0.66 7 1 C6.34 1.66 5.68 2.32 5 3 C5.66 3.66 6.32 4.32 7 5 C6.67 5.99 6.34 6.98 6 8 C4.9970458 6.85675161 3.99770973 5.71032809 3 4.5625 C2.443125 3.92441406 1.88625 3.28632812 1.3125 2.62890625 C0 1 0 1 0 0 Z " fill="#36617F" transform="translate(131,57)"/>
<path d="M0 0 C1.65 0.99 3.3 1.98 5 3 C4.67 3.66 4.34 4.32 4 5 C0 5 0 5 -3 3 C-2.01 3 -1.02 3 0 3 C0 2.01 0 1.02 0 0 Z " fill="#067685" transform="translate(267,36)"/>
<path d="M0 0 C0 1.65 0 3.3 0 5 C-1.65 5.33 -3.3 5.66 -5 6 C-5 4.68 -5 3.36 -5 2 C-1.125 0 -1.125 0 0 0 Z " fill="#6A5762" transform="translate(182,189)"/>
<path d="M0 0 C0.66 0.33 1.32 0.66 2 1 C0.47291037 4.43595166 -1.59927045 7.11912454 -4 10 C-3.5205537 5.78087253 -2.83374881 3.20336822 0 0 Z " fill="#946427" transform="translate(220,55)"/>
<path d="M0 0 C1.98 0 3.96 0 6 0 C6 0.66 6 1.32 6 2 C2.78548731 3.60725635 -0.43612536 3.05748185 -4 3 C-2.68 2.67 -1.36 2.34 0 2 C0 1.34 0 0.68 0 0 Z " fill="#74131A" transform="translate(197,211)"/>
<path d="M0 0 C0.6875 1.625 0.6875 1.625 1 4 C-0.4375 7.25 -0.4375 7.25 -2 10 C-2.66 9.01 -3.32 8.02 -4 7 C-2.68 4.69 -1.36 2.38 0 0 Z " fill="#8A561B" transform="translate(155,173)"/>
<path d="M0 0 C2.64 0 5.28 0 8 0 C8 0.33 8 0.66 8 1 C5.36 1.33 2.72 1.66 0 2 C0 1.34 0 0.68 0 0 Z M-4 2 C-2.68 2.33 -1.36 2.66 0 3 C-0.99 4.32 -1.98 5.64 -3 7 C-3.33 5.35 -3.66 3.7 -4 2 Z " fill="#0B97AC" transform="translate(254,38)"/>
<path d="M0 0 C2.5 1.3125 2.5 1.3125 5 3 C5 3.99 5 4.98 5 6 C3.68 6 2.36 6 1 6 C0.67 4.02 0.34 2.04 0 0 Z " fill="#BF7326" transform="translate(254,24)"/>
<path d="M0 0 C2.6855594 2.6855594 3.06049974 5.37621328 4 9 C1 8 1 8 -0.25 5.625 C-1 3 -1 3 0 0 Z " fill="#04303F" transform="translate(72,207)"/>
<path d="M0 0 C0.99 0 1.98 0 3 0 C3.33 1.65 3.66 3.3 4 5 C3.01 5.33 2.02 5.66 1 6 C0.67 4.02 0.34 2.04 0 0 Z " fill="#A11F25" transform="translate(179,194)"/>
<path d="M0 0 C1.65 0 3.3 0 5 0 C5 0.66 5 1.32 5 2 C2.35261084 3.4606285 1.10551666 4 -2 4 C-2 3.34 -2 2.68 -2 2 C-1.34 2 -0.68 2 0 2 C0 1.34 0 0.68 0 0 Z " fill="#969698" transform="translate(195,183)"/>
<path d="M0 0 C0.33 0 0.66 0 1 0 C1 1.98 1 3.96 1 6 C-0.32 6.33 -1.64 6.66 -3 7 C-1.125 1.125 -1.125 1.125 0 0 Z " fill="#18404F" transform="translate(166,163)"/>
<path d="M0 0 C0.99 0 1.98 0 3 0 C1.25 5.75 1.25 5.75 -1 8 C-1.125 2.25 -1.125 2.25 0 0 Z " fill="#8E754F" transform="translate(183,119)"/>
<path d="M0 0 C0.66 0.33 1.32 0.66 2 1 C1.649375 1.556875 1.29875 2.11375 0.9375 2.6875 C-0.21845993 5.53886783 0.19032562 7.08517222 1 10 C-1.15377564 7.37801226 -2.40072174 5.35595828 -3 2 C-2.01 1.34 -1.02 0.68 0 0 Z " fill="#AC292E" transform="translate(135,84)"/>
<path d="M0 0 C0.66 0.66 1.32 1.32 2 2 C0.35 3.98 -1.3 5.96 -3 8 C-3.66 7.34 -4.32 6.68 -5 6 C-3.625 4.5 -3.625 4.5 -2 3 C-1.34 3 -0.68 3 0 3 C0 2.01 0 1.02 0 0 Z " fill="#56171F" transform="translate(214,200)"/>
<path d="M0 0 C0.33 0.66 0.66 1.32 1 2 C0.06553465 4.03144641 -0.93224776 6.03533587 -2 8 C-2.99 7.67 -3.98 7.34 -5 7 C-3.35 4.69 -1.7 2.38 0 0 Z " fill="#D89949" transform="translate(197,54)"/>
</svg>
